0.11m3min_grf.mot
version=1
nRows=10
nColumns 19
inDegrees=yes
endheader
time	1_ground_force_vx	1_ground_force_vy	1_ground_force_vz	1_ground_force_px	1_ground_force_py	1_ground_force_pz	1_ground_torque_x	1_ground_torque_y	1_ground_torque_z	2_ground_force_vx	2_ground_force_vy	2_ground_force_vz	2_ground_force_px	2_ground_force_py	2_ground_force_pz	2_ground_torque_x	2_ground_torque_y	2_ground_torque_z
            0.005000	          -73.977606	         1226.254407	         -102.322873	           -0.253362	            0.006270	           -0.417242	           -0.634441	           10.516504	           -0.877533	          -66.610255	         1618.988627	          111.346010	           -0.254613	            0.005397	           -0.650687	            0.391422	           -9.513666	           -0.654303
            0.005500	          -73.428250	         1227.877599	         -102.500706	           -0.253339	            0.006270	           -0.417219	           -0.635516	           10.627184	           -0.887136	          -65.673531	         1619.172910	          112.237895	           -0.254599	            0.005396	           -0.650574	            0.382948	           -9.441548	           -0.654470
            0.006000	          -73.336613	         1230.040337	         -102.354086	           -0.253375	            0.006269	           -0.417011	           -0.624438	           10.473407	           -0.871513	          -64.695354	         1620.831157	          112.947318	           -0.254784	            0.005396	           -0.650712	            0.386926	           -9.693760	           -0.675508
            0.006500	          -73.518887	         1229.677940	         -101.942478	           -0.253502	            0.006270	           -0.417184	           -0.609037	           10.186755	           -0.844500	          -63.525955	         1621.386697	          113.277281	           -0.254825	            0.005396	           -0.650774	            0.388424	           -9.913837	           -0.692625
            0.007000	          -73.793635	         1231.659599	         -101.658150	           -0.253495	            0.006270	           -0.417089	           -0.599937	           10.013304	           -0.826473	          -62.217440	         1622.311985	          113.373865	           -0.254936	            0.005396	           -0.650870	            0.383267	           -9.993650	           -0.698398
            0.007500	          -73.472534	         1231.839686	         -101.566468	           -0.253515	            0.006270	           -0.417145	           -0.607839	           10.191021	           -0.840260	          -61.094831	         1622.866855	          113.844639	           -0.255030	            0.005396	           -0.650861	            0.366581	           -9.737508	           -0.683089
            0.008000	          -72.877894	         1233.463870	         -101.973690	           -0.253491	            0.006270	           -0.417122	           -0.619200	           10.480015	           -0.866410	          -60.955927	         1623.416756	          114.644335	           -0.255095	            0.005396	           -0.650943	            0.350319	           -9.329907	           -0.658870
            0.008500	          -71.962330	         1234.907942	         -102.382482	           -0.253365	            0.006270	           -0.417048	           -0.630150	           10.813675	           -0.896529	          -60.536646	         1624.152498	          115.303777	           -0.255210	            0.005396	           -0.650964	            0.337254	           -9.048260	           -0.642365
            0.009000	          -70.588299	         1235.631359	         -102.841369	           -0.253488	            0.006269	           -0.417027	           -0.627635	           10.986604	           -0.914413	          -59.974784	         1624.336174	          116.055045	           -0.255238	            0.005396	           -0.651044	            0.335646	           -9.090518	           -0.649496
            0.009500	          -70.496253	         1236.711927	         -102.607668	           -0.253524	            0.006269	           -0.416967	           -0.606760	           10.644359	           -0.883143	          -59.130290	         1624.150543	          117.274160	           -0.255288	            0.005395	           -0.650989	            0.335961	           -9.227953	           -0.666318
